<svg width="10" height="15" viewBox="0 0 10 15" fill="none" xmlns="http://www.w3.org/2000/svg">
<g clip-path="url(#clip0_1_1542)">
<path fill-rule="evenodd" clip-rule="evenodd" d="M0.97998 12.484H9.97998V14.516H0.97998V12.484ZM5.42698 3.194C6.20751 3.17936 6.9809 3.34499 7.68698 3.678C8.34598 4 8.67498 4.609 8.67498 5.505V8.913C8.67498 9.149 8.67998 9.435 8.68998 9.772C8.68398 9.952 8.72598 10.13 8.80998 10.289C8.88798 10.389 8.99098 10.467 9.10898 10.514V10.801H6.90498C6.84752 10.6649 6.80461 10.5231 6.77698 10.378C6.75058 10.229 6.73156 10.0788 6.71998 9.928C6.43626 10.2213 6.11074 10.471 5.75398 10.669C5.29998 10.915 4.79098 11.04 4.27498 11.032C3.6451 11.0562 3.02775 10.8516 2.53698 10.456C2.3055 10.2542 2.12325 10.0022 2.00417 9.71914C1.8851 9.4361 1.83236 9.12956 1.84998 8.823C1.8246 8.42154 1.91505 8.02124 2.11059 7.6697C2.30613 7.31816 2.59851 7.03018 2.95298 6.84C3.51137 6.57311 4.11404 6.41108 4.73098 6.362L5.42098 6.281C5.69398 6.258 5.96398 6.201 6.22398 6.111C6.34631 6.07801 6.45469 6.00632 6.53291 5.90665C6.61114 5.80698 6.65501 5.68467 6.65798 5.558C6.6703 5.43215 6.64552 5.30544 6.58671 5.19349C6.52789 5.08155 6.43761 4.98926 6.32698 4.928C6.02158 4.79536 5.68944 4.73579 5.35698 4.754C5.17301 4.73475 4.98706 4.75514 4.81164 4.81379C4.63621 4.87244 4.47538 4.96798 4.33998 5.094C4.18531 5.29143 4.08715 5.52715 4.05598 5.776H2.09998C2.11698 5.196 2.31598 4.636 2.66898 4.173C3.20398 3.52 4.12298 3.194 5.42698 3.194ZM6.64898 7.188C6.52631 7.26294 6.39671 7.3259 6.26198 7.376C6.08692 7.43472 5.90731 7.47887 5.72498 7.508L5.26998 7.59C4.95218 7.62965 4.64267 7.71943 4.35298 7.856C4.2042 7.93447 4.08092 8.0538 3.99766 8.19995C3.91439 8.34611 3.87461 8.513 3.88298 8.681C3.871 8.81509 3.89105 8.95011 3.94147 9.07494C3.99189 9.19977 4.07124 9.31084 4.17298 9.399C4.37498 9.55 4.62198 9.628 4.87298 9.621C5.30298 9.623 5.72298 9.494 6.07798 9.253C6.44598 9.007 6.63598 8.56 6.65098 7.91L6.64898 7.188ZM9.97998 0V2.032H0.97998V0H9.97998Z" fill="white"/>
</g>
<defs>
<clipPath id="clip0_1_1542">
<rect width="9" height="15" fill="white" transform="translate(0.97998)"/>
</clipPath>
</defs>
</svg>
